<?xml version="1.0" encoding="UTF-8" standalone="no"?>
<!DOCTYPE svg PUBLIC "-//W3C//DTD SVG 1.1//EN" "http://www.w3.org/Graphics/SVG/1.1/DTD/svg11.dtd">
<svg width="750px" height="500px" version="1.1" xmlns="http://www.w3.org/2000/svg" xmlns:xlink="http://www.w3.org/1999/xlink" xml:space="preserve" xmlns:serif="http://www.serif.com/" style="fill-rule:evenodd;clip-rule:evenodd;stroke-miterlimit:10;">
    <g id="OBJECTS">
        <g id="right_hill" transform="matrix(-8.73583,210.813,301.328,12.9309,623.512,309.573)">
            <path d="M0.439,-0.091C0.45,-0.359 0.646,-0.455 0.646,-0.455L0.965,-0.439L0.927,0.455L-0.135,0.41C-0.062,0.175 0.428,0.159 0.439,-0.091Z" style="fill:rgb(0,241,146);fill-rule:nonzero;"/>
        </g>
        <g id="clouds">
            <g id="cloud4" class="cloud4" transform="matrix(0.144117,1.12146,1.10203,-0.146659,660.351,143.447)">
                <path d="M65.444,-45.562C65.444,-45.562 47.994,-32.07 50.747,-11.196C53.5,9.678 65.444,13.842 65.444,13.842C65.444,13.842 47.934,47.662 81.111,70.741L65.444,-45.562Z" style="fill:rgb(243,242,242);fill-rule:nonzero;"/>
            </g>
            <g id="cloud3" class="cloud3" transform="matrix(0.144117,1.12146,1.10203,-0.146659,144.798,205.802)">
                <path d="M65.444,-45.562C65.444,-45.562 41.704,-31.248 44.456,-10.374C47.209,10.501 65.444,13.842 65.444,13.842C65.444,13.842 47.934,47.662 81.111,70.741L65.444,-45.562Z" style="fill:rgb(255,249,248);fill-rule:nonzero;"/>
            </g>
            <g id="cloud2" class="cloud2" transform="matrix(0.14412,1.12146,1.10203,-0.146661,244.003,266.634)">
                <path d="M65.444,-45.561C65.444,-45.561 47.993,-32.069 50.747,-11.196C53.499,9.679 65.444,13.842 65.444,13.842C65.444,13.842 47.933,47.663 81.111,70.741L65.444,-45.561Z" style="fill:rgb(251,248,248);fill-rule:nonzero;"/>
            </g>
            <g id="cloud1" class="cloud1" transform="matrix(0.144117,1.12146,1.10203,-0.146659,39.5151,120.22)">
                <path d="M65.444,-45.562C65.444,-45.562 47.994,-32.07 50.747,-11.196C53.5,9.678 65.444,13.842 65.444,13.842C65.444,13.842 47.934,47.662 81.111,70.741L65.444,-45.562Z" style="fill:rgb(243,242,242);fill-rule:nonzero;"/>
            </g>
        </g>
        <g id="middle_plants">
            <g id="middle_plant1">
                <g transform="matrix(95.2451,67.3361,66.1694,-96.9245,313.489,380.202)">
                    <path d="M0.326,-0.221C0.326,-0.221 0.653,-0.49 0.642,-0.127C0.631,0.236 0.46,0.533 0.326,0.443C0.326,0.443 0.325,0.443 0.325,0.443C0.193,0.351 0.326,-0.221 0.326,-0.221Z" style="fill:url(#_Linear1);fill-rule:nonzero;"/>
                </g>
                <g transform="matrix(-0.427466,1.04401,1.02592,0.435004,383.916,431.159)">
                    <path d="M-46.291,-30.861C-46.291,-30.861 -3.749,-25.34 20.574,-30.861" style="fill:none;fill-rule:nonzero;stroke:rgb(135,175,40);stroke-width:0.92px;"/>
                </g>
                <g transform="matrix(1.11141,0,0,1.13101,364.239,386.299)">
                    <path d="M0,-12.915L2.615,0L14.223,-5.231" style="fill:none;fill-rule:nonzero;stroke:rgb(135,175,40);stroke-width:0.93px;"/>
                </g>
                <g transform="matrix(1.11141,0,0,1.13101,356.789,401.462)">
                    <path d="M0,-14.387L4.414,0L17.493,-4.251" style="fill:none;fill-rule:nonzero;stroke:rgb(135,175,40);stroke-width:0.93px;"/>
                </g>
                <g transform="matrix(1.11141,0,0,1.13101,350.975,414.96)">
                    <path d="M0,-13.079L4.741,0L16.512,-2.779" style="fill:none;fill-rule:nonzero;stroke:rgb(135,175,40);stroke-width:0.93px;"/>
                </g>
                <g transform="matrix(1.11141,0,0,1.13101,-84,5.8088)">
                    <g opacity="0.6">
                        <g transform="matrix(-0.708731,-0.705479,-0.705479,0.708731,350.799,382.758)">
                            <path d="M-5.878,-94.235C-10.904,-85.732 -19.803,-64.679 2.947,-48.678C-1.252,-35.538 -5.878,-24.734 -5.878,-24.734C-5.878,-24.734 -44.391,-3.033 -36.637,-40.132C-31.048,-66.866 -17.527,-88.552 -5.878,-94.235" style="fill:rgb(0,69,2);fill-rule:nonzero;"/>
                        </g>
                    </g>
                </g>
            </g>
            <g id="middle_shrub">
                <g transform="matrix(16.6471,-216.24,-212.494,-16.9406,315.04,462.653)">
                    <path d="M0.288,0.055C0.305,0.086 0.367,0.092 0.367,0.092C0.304,0.169 0.223,0.171 0.223,0.171C0.223,0.171 0.088,-0.065 0.183,-0.105C0.278,-0.145 0.374,-0.085 0.374,-0.085L0.281,-0.024C0.345,-0.024 0.438,0.024 0.438,0.024C0.409,0.053 0.288,0.055 0.288,0.055Z" style="fill:url(#_Linear2);fill-rule:nonzero;"/>
                </g>
                <g transform="matrix(1.11141,0,0,1.13101,-84,5.8088)">
                    <g opacity="0.6">
                        <g transform="matrix(1,0,0,1,385.426,379.316)">
                            <path d="M0,-29.267C-8.399,-24.23 -19.317,-18.867 -27.961,-18.694C-39.084,-18.471 -45.227,-30.308 -48.033,-37.96C-54.889,-29.129 -55.757,-20.673 -55.757,-20.673C-55.757,-20.673 -12.646,8.693 -3.586,-8.801C0.025,-15.776 0.604,-23.043 0,-29.267" style="fill:rgb(0,69,2);fill-rule:nonzero;"/>
                        </g>
                    </g>
                </g>
            </g>
        </g>
        <g id="top_hills">
            <g transform="matrix(-64.0251,175.523,172.481,65.154,406.828,489.282)">
                <path d="M-0.523,-0.072C-0.369,-0.444 -0.116,-0.591 -0.116,-0.591C0.401,0.146 -0.523,0.619 -0.523,0.619C-0.523,0.619 -0.669,0.318 -0.536,-0.041C-0.532,-0.051 -0.528,-0.062 -0.523,-0.072Z" style="fill:url(#_Linear3);fill-rule:nonzero;"/>
            </g>
            <g transform="matrix(1.11141,0,0,1.13101,-84,5.8088)">
                <g opacity="0.6">
                    <g transform="matrix(1,0,0,1,567.894,471.714)">
                        <path d="M0,-89.788C0,-89.788 -14.29,-104.648 -39.817,-116.238C-53.619,-113.919 -68.771,-110.346 -85.034,-106.593C-134.647,-95.143 -170.215,-105.99 -184.556,-111.929C-202.076,-103.942 -211.344,-96.291 -211.344,-96.291C-126.807,26.45 0,-89.788 0,-89.788" style="fill:rgb(0,69,2);fill-rule:nonzero;"/>
                    </g>
                </g>
            </g>
            <g transform="matrix(60.7895,-288.686,-283.684,-61.8614,209.157,501.969)">
                <path d="M0.395,0.828L-0.173,0.706L0.156,-0.828C0.228,-0.79 0.298,-0.718 0.284,-0.583C0.256,-0.315 0.488,0.005 0.518,0.388C0.526,0.488 0.52,0.567 0.507,0.628C0.48,0.752 0.424,0.807 0.395,0.828Z" style="fill:url(#_Linear4);fill-rule:nonzero;"/>
            </g>
            <g transform="matrix(1.31931,0,0,1.10672,-179.636,5.69522)">
                <g opacity="0.6">
                    <g transform="matrix(1,0,0,1,460.022,303.56)">
                        <path d="M0,113.896L-20.411,96.643C-23.949,95.75 -27.734,95.059 -31.808,94.618C-81.086,89.274 -129.946,49.63 -188.113,16.652C-212.102,12.719 -237.773,10.491 -262.585,11.99C-324.413,15.727 -344.116,-11.213 -350.319,-26.777C-369.708,-23.34 -380.698,-15.704 -385.968,-10.845L-385.968,140.673L-199.488,140.673L0,113.896Z" style="fill:rgb(0,69,2);fill-rule:nonzero;"/>
                    </g>
                </g>
            </g>
            <g id="top_left_dots">
                <g transform="matrix(0,-1.13101,-1.11141,0,64.5429,330.234)">
                    <path d="M-1.926,-1.925C-2.318,-1.925 -2.636,-1.063 -2.636,0.001C-2.636,1.064 -2.318,1.926 -1.926,1.926C-1.533,1.926 -1.217,1.064 -1.217,0.001C-1.217,-1.063 -1.533,-1.925 -1.926,-1.925" style="fill:white;fill-rule:nonzero;"/>
                </g>
                <g transform="matrix(0,-1.13101,-1.11141,0,111.551,364.644)">
                    <path d="M-1.925,-1.926C-2.318,-1.926 -2.635,-1.064 -2.635,-0C-2.635,1.063 -2.318,1.925 -1.925,1.925C-1.533,1.925 -1.217,1.063 -1.217,-0C-1.217,-1.064 -1.533,-1.926 -1.925,-1.926" style="fill:white;fill-rule:nonzero;"/>
                </g>
                <g transform="matrix(0,-1.13101,-1.11141,0,204.249,383.6)">
                    <path d="M-1.926,-1.925C-2.318,-1.925 -2.636,-1.063 -2.636,0.001C-2.636,1.064 -2.318,1.926 -1.926,1.926C-1.533,1.926 -1.217,1.064 -1.217,0.001C-1.217,-1.063 -1.533,-1.925 -1.926,-1.925" style="fill:white;fill-rule:nonzero;"/>
                </g>
                <g transform="matrix(0,-1.13101,-1.11141,0,68.8752,351.201)">
                    <path d="M-1.926,-1.925C-2.318,-1.925 -2.636,-1.063 -2.636,0.001C-2.636,1.064 -2.318,1.926 -1.926,1.926C-1.533,1.926 -1.217,1.064 -1.217,0.001C-1.217,-1.063 -1.533,-1.925 -1.926,-1.925" style="fill:white;fill-rule:nonzero;"/>
                </g>
                <g transform="matrix(0,-1.13101,-1.11141,0,142.264,350.167)">
                    <path d="M-1.925,-1.926C-2.318,-1.926 -2.635,-1.064 -2.635,-0C-2.635,1.063 -2.318,1.925 -1.925,1.925C-1.533,1.925 -1.217,1.063 -1.217,-0C-1.217,-1.064 -1.533,-1.926 -1.925,-1.926" style="fill:white;fill-rule:nonzero;"/>
                </g>
                <g transform="matrix(0,-1.13101,-1.11141,0,10.0489,352.924)">
                    <path d="M-1.926,-1.925C-2.318,-1.925 -2.636,-1.063 -2.636,0.001C-2.636,1.065 -2.318,1.926 -1.926,1.926C-1.535,1.926 -1.217,1.065 -1.217,0.001C-1.217,-1.063 -1.535,-1.925 -1.926,-1.925" style="fill:white;fill-rule:nonzero;"/>
                </g>
            </g>
            <g transform="matrix(1.33906,0,0,1.10672,-183.162,5.69522)">
                <g opacity="0.6">
                    <g transform="matrix(1,0,0,1,416.969,359.134)">
                        <path d="M0,37.235C-24.074,32.189 -48.227,19.706 -73.59,4.549C-115.33,-9.379 -160.487,-29.759 -225.647,-27.846C-304.548,-25.529 -324.076,-40.662 -342.915,-47.864L-342.915,85.099L18.637,85.099L0,37.235Z" style="fill:rgb(0,69,2);fill-rule:nonzero;"/>
                    </g>
                </g>
            </g>
        </g>
        <g id="trees_group" transform="matrix(1,0,0,1,7.6452,0)">
            <g id="tree1" transform="matrix(1,0,0,1,-10.6159,2.90071)">
                <g transform="matrix(31.5914,-254.367,-249.959,-32.1484,45.0633,304.176)">
                    <path d="M0.216,0.091C0.193,0.11 0.163,0.119 0.131,0.115C0.069,0.108 0.026,0.051 0.033,-0.01C0.041,-0.072 0.098,-0.116 0.159,-0.108C0.191,-0.104 0.218,-0.087 0.236,-0.063C0.252,-0.04 0.261,-0.012 0.257,0.018C0.253,0.048 0.238,0.073 0.216,0.091Z" style="fill:url(#_Linear5);fill-rule:nonzero;"/>
                </g>
                <g transform="matrix(31.5904,-254.359,-249.951,-32.1474,31.6377,302.457)">
                    <path d="M0.614,0.062C0.613,0.064 0.611,0.066 0.609,0.068C0.588,0.089 0.559,0.101 0.527,0.097C0.496,0.093 0.471,0.075 0.456,0.051C0.453,0.047 0.451,0.042 0.449,0.037C0.443,0.022 0.44,0.005 0.442,-0.012C0.445,-0.035 0.456,-0.055 0.471,-0.07C0.492,-0.09 0.521,-0.101 0.551,-0.097C0.57,-0.095 0.586,-0.088 0.6,-0.077C0.626,-0.056 0.64,-0.023 0.636,0.012C0.634,0.031 0.626,0.049 0.614,0.062Z" style="fill:url(#_Linear6);fill-rule:nonzero;"/>
                </g>
                <g transform="matrix(31.592,-254.372,-249.964,-32.1491,37.6861,303.235)">
                    <path d="M0.463,0.065C0.461,0.069 0.458,0.072 0.456,0.075C0.447,0.087 0.436,0.097 0.424,0.105C0.396,0.123 0.36,0.131 0.323,0.127C0.277,0.121 0.238,0.096 0.216,0.061C0.201,0.038 0.194,0.01 0.198,-0.019C0.201,-0.048 0.215,-0.073 0.236,-0.092C0.248,-0.104 0.262,-0.113 0.278,-0.119C0.301,-0.129 0.328,-0.133 0.355,-0.129C0.38,-0.126 0.402,-0.118 0.421,-0.105C0.443,-0.09 0.461,-0.07 0.471,-0.046C0.48,-0.027 0.483,-0.005 0.481,0.017C0.478,0.034 0.472,0.051 0.463,0.065Z" style="fill:url(#_Linear7);fill-rule:nonzero;"/>
                </g>
                <g transform="matrix(1.11141,0,0,1.13101,-84,5.8088)">
                    <g opacity="0.6">
                        <g transform="matrix(1,0,0,1,144.921,147.916)">
                            <path d="M0,83.152C0,97.243 -11.429,108.672 -25.52,108.672C-39.611,108.672 -51.04,97.243 -51.04,83.152C-51.04,75.873 -47.993,69.3 -43.095,64.662C-50.166,58.756 -54.742,49.375 -54.742,38.83C-54.742,30.323 -51.778,22.587 -46.911,16.815C-44.748,14.236 -42.21,12.052 -39.393,10.378C-44.436,6.333 -47.66,0.103 -47.66,-6.874C-47.66,-14.102 -44.208,-20.508 -38.852,-24.553C-38.405,-24.896 -37.947,-25.208 -37.469,-25.52C-38.134,-17.68 -38.737,-4.462 -36.97,9.078C-36.834,10.17 -36.678,11.262 -36.501,12.354C-33.205,33.038 -23.991,53.535 -0.749,55.968C-2.642,59.327 -5.085,62.27 -7.945,64.662C-3.047,69.3 0,75.873 0,83.152" style="fill:rgb(0,69,2);fill-rule:nonzero;"/>
                        </g>
                    </g>
                </g>
                <g transform="matrix(1.11141,-5.55112e-17,-1.11022e-16,1.13101,41.1829,152.403)">
                    <path d="M0,203.49C0,203.49 3.061,-0.792 6.206,-0.672C9.35,-0.552 10.182,204.282 10.182,204.282L0,203.49Z" style="fill:rgb(77,38,71);fill-rule:nonzero;"/>
                </g>
                <g transform="matrix(1.11141,0,0,1.13101,33.3058,217.603)">
                    <path d="M0,-16.652C0,-16.652 1.89,-7.632 12.759,-7.692L12.801,0C12.801,0 -0.783,-6.948 0,-16.652" style="fill:rgb(77,38,71);fill-rule:nonzero;"/>
                </g>
                <g transform="matrix(1.11141,0,0,1.13101,33.5745,267.173)">
                    <path d="M0,-16.652C0,-16.652 1.889,-7.632 12.759,-7.692L12.801,0C12.801,0 -0.783,-6.948 0,-16.652" style="fill:rgb(77,38,71);fill-rule:nonzero;"/>
                </g>
                <g transform="matrix(1.11141,0,0,1.13101,63.097,238.29)">
                    <path d="M0,-16.792C0,-16.792 -1.79,-7.752 -12.659,-7.692L-12.617,0C-12.617,0 0.89,-7.098 0,-16.792" style="fill:rgb(77,38,71);fill-rule:nonzero;"/>
                </g>
                <g transform="matrix(1.11141,0,0,1.13101,63.0676,192.883)">
                    <path d="M0,-16.792C0,-16.792 -1.79,-7.752 -12.659,-7.692L-12.617,0C-12.617,0 0.89,-7.098 0,-16.792" style="fill:rgb(77,38,71);fill-rule:nonzero;"/>
                </g>
                <g transform="matrix(39.9485,-118.831,-116.772,-40.6529,25.742,419.616)">
                    <path d="M0.485,0.087C0.43,0.199 0.294,0.116 0.294,0.116C0.294,0.116 0.325,0.165 0.228,0.186C0.13,0.208 0.072,0.079 0.072,0.079L0.312,-0.227C0.312,-0.227 0.545,-0.219 0.539,-0.139C0.532,-0.059 0.423,-0.065 0.423,-0.065C0.423,-0.065 0.526,-0.029 0.493,0.068C0.491,0.074 0.488,0.08 0.485,0.087Z" style="fill:url(#_Linear8);fill-rule:nonzero;"/>
                </g>
                <g transform="matrix(1.11141,0,0,1.13101,-84.358,2.45942)">
                    <g opacity="0.6">
                        <g transform="matrix(1,0,0,1,93.394,316.986)">
                            <path d="M0,41.484L40.702,27.213C40.702,27.213 48.223,2.44 39.596,0.228C39.146,0.113 38.713,0.044 38.291,0C36.319,7.37 27.884,26.164 -7.112,29.449C-5.841,36.027 0,41.484 0,41.484" style="fill:rgb(0,69,2);fill-rule:nonzero;"/>
                        </g>
                    </g>
                </g>
            </g>
            <g id="tree2" transform="matrix(1,0,0,1,-4.06933,-3.79556)">
                <g transform="matrix(38.0283,-210.265,-206.621,-38.6989,98.4994,272.628)">
                    <path d="M0.532,0.12C0.501,0.115 0.474,0.098 0.455,0.075C0.437,0.052 0.426,0.022 0.426,-0.009C0.426,-0.016 0.427,-0.023 0.428,-0.031C0.435,-0.07 0.459,-0.101 0.491,-0.12C0.517,-0.134 0.548,-0.141 0.579,-0.135C0.618,-0.128 0.649,-0.104 0.667,-0.074C0.683,-0.047 0.689,-0.016 0.684,0.016C0.671,0.087 0.603,0.133 0.532,0.12Z" style="fill:url(#_Linear9);fill-rule:nonzero;"/>
                </g>
                <g transform="matrix(38.0174,-210.204,-206.562,-38.6877,108.364,274.447)">
                    <path d="M0.455,0.123C0.432,0.137 0.404,0.145 0.374,0.144C0.364,0.144 0.354,0.143 0.344,0.142C0.295,0.133 0.256,0.103 0.234,0.066C0.22,0.039 0.214,0.009 0.219,-0.021C0.225,-0.052 0.241,-0.078 0.264,-0.097C0.298,-0.125 0.345,-0.138 0.394,-0.129C0.435,-0.122 0.469,-0.101 0.491,-0.072C0.504,-0.056 0.512,-0.039 0.517,-0.02C0.521,-0.003 0.522,0.015 0.519,0.034C0.512,0.072 0.488,0.103 0.455,0.123Z" style="fill:url(#_Linear10);fill-rule:nonzero;"/>
                </g>
                <g transform="matrix(38.0161,-210.197,-206.554,-38.6864,116.113,275.901)">
                    <path d="M0.234,0.103C0.209,0.122 0.175,0.13 0.142,0.124C0.076,0.112 0.033,0.049 0.045,-0.016C0.057,-0.081 0.12,-0.125 0.185,-0.113C0.219,-0.106 0.247,-0.087 0.264,-0.06C0.281,-0.035 0.288,-0.004 0.282,0.028C0.276,0.059 0.258,0.086 0.234,0.103Z" style="fill:url(#_Linear11);fill-rule:nonzero;"/>
                </g>
                <g transform="matrix(1.11141,0,0,1.13101,-84,5.8088)">
                    <g opacity="0.6">
                        <g transform="matrix(1,0,0,1,207.303,137.084)">
                            <path d="M0,71.142C0,83.694 -10.181,93.875 -22.744,93.875C-35.295,93.875 -45.476,83.694 -45.476,71.142C-45.476,64.653 -42.751,58.798 -38.395,54.659C-44.696,49.397 -48.773,41.046 -48.773,31.645C-48.773,29.701 -48.596,27.798 -48.263,25.957C-39.351,25.448 -32.321,23.222 -26.789,19.915C-20.32,16.057 -15.88,10.732 -12.864,5.002C-7.716,-4.762 -6.646,-15.723 -6.593,-22.733C-1.466,-18.25 1.778,-11.647 1.778,-4.284C1.778,1.768 -0.416,7.311 -4.056,11.596C0.499,16.774 3.296,23.846 3.296,31.645C3.296,41.057 -0.791,49.408 -7.092,54.659C-2.725,58.788 0,64.642 0,71.142" style="fill:rgb(0,69,2);fill-rule:nonzero;"/>
                        </g>
                    </g>
                </g>
                <g transform="matrix(1.11141,0,0,1.13101,126.942,139.072)">
                    <path d="M0,176.115C0,176.115 -2.728,-0.705 -5.529,-0.598C-8.331,-0.491 -9.072,176.82 -9.072,176.82L0,176.115Z" style="fill:rgb(77,38,71);fill-rule:nonzero;"/>
                </g>
                <g transform="matrix(1.11141,0,0,1.13101,133.96,197.166)">
                    <path d="M0,-14.837C0,-14.837 -1.683,-6.8 -11.368,-6.854L-11.406,0C-11.406,0 0.697,-6.191 0,-14.837" style="fill:rgb(77,38,71);fill-rule:nonzero;"/>
                </g>
                <g transform="matrix(1.11141,0,0,1.13101,133.721,241.335)">
                    <path d="M0,-14.837C0,-14.837 -1.683,-6.8 -11.368,-6.854L-11.406,0C-11.406,0 0.697,-6.191 0,-14.837" style="fill:rgb(77,38,71);fill-rule:nonzero;"/>
                </g>
                <g transform="matrix(1.11141,0,0,1.13101,107.416,215.599)">
                    <path d="M0,-14.962C0,-14.962 1.595,-6.907 11.28,-6.854L11.242,0C11.242,0 -0.792,-6.324 0,-14.962" style="fill:rgb(77,38,71);fill-rule:nonzero;"/>
                </g>
                <g transform="matrix(1.11141,0,0,1.13101,107.442,175.14)">
                    <path d="M0,-14.962C0,-14.962 1.595,-6.907 11.28,-6.854L11.242,0C11.242,0 -0.792,-6.324 0,-14.962" style="fill:rgb(77,38,71);fill-rule:nonzero;"/>
                </g>
                <g transform="matrix(62.8676,-71.1847,-69.9513,-63.9761,103.368,348.827)">
                    <path d="M0.427,0.115C0.325,0.225 0.204,0.122 0.204,0.122C0.204,0.122 0.204,0.19 0.135,0.195C0.066,0.201 0.015,0.063 0.015,0.063L0.3,-0.255C0.3,-0.255 0.547,-0.185 0.392,-0.058C0.392,-0.058 0.527,0.003 0.43,0.112C0.429,0.113 0.428,0.114 0.427,0.115Z" style="fill:url(#_Linear12);fill-rule:nonzero;"/>
                </g>
                <g transform="matrix(1.11141,0,0,1.13101,-84,5.8088)">
                    <g opacity="0.6">
                        <g transform="matrix(1,0,0,1,194.39,290.263)">
                            <path d="M0,-8.371C0,-8.371 1.586,-13.376 -0.626,-16.922C-3.805,-9.67 -12.648,4.655 -31.766,0.447C-31.031,4.527 -28.921,8.551 -28.921,8.551L7.251,8.551C7.251,8.551 16.798,-10.956 0,-8.371" style="fill:rgb(0,69,2);fill-rule:nonzero;"/>
                        </g>
                    </g>
                </g>
            </g>
            <g id="tree3" transform="matrix(1,0,0,1,-4.06933,-3.79556)">
                <g transform="matrix(31.553,-254.058,-249.656,-32.1094,189.656,322.687)">
                    <path d="M0.205,0.1C0.184,0.113 0.158,0.119 0.131,0.116C0.069,0.108 0.026,0.052 0.033,-0.01C0.041,-0.071 0.098,-0.115 0.159,-0.107C0.172,-0.106 0.184,-0.102 0.195,-0.097C0.207,-0.091 0.218,-0.083 0.227,-0.073C0.248,-0.05 0.26,-0.019 0.257,0.014C0.257,0.015 0.257,0.017 0.257,0.019C0.252,0.053 0.233,0.082 0.205,0.1Z" style="fill:url(#_Linear13);fill-rule:nonzero;"/>
                </g>
                <g transform="matrix(28.1199,-226.415,-222.492,-28.6157,177.622,339.645)">
                    <path d="M0.621,0.052C0.601,0.082 0.565,0.1 0.527,0.095C0.501,0.092 0.48,0.079 0.464,0.061C0.453,0.048 0.445,0.031 0.443,0.013C0.441,0.005 0.441,-0.005 0.442,-0.014C0.446,-0.042 0.461,-0.066 0.482,-0.081C0.502,-0.095 0.526,-0.102 0.551,-0.099C0.605,-0.092 0.643,-0.043 0.636,0.011C0.634,0.026 0.629,0.04 0.621,0.052Z" style="fill:url(#_Linear14);fill-rule:nonzero;"/>
                </g>
                <g transform="matrix(24.178,-194.676,-191.303,-24.6044,184.484,320.016)">
                    <path d="M0.467,0.057C0.459,0.071 0.449,0.084 0.436,0.094C0.407,0.118 0.366,0.131 0.323,0.126C0.299,0.122 0.276,0.114 0.258,0.102C0.216,0.074 0.191,0.028 0.198,-0.02C0.202,-0.057 0.224,-0.088 0.254,-0.108C0.264,-0.114 0.275,-0.119 0.286,-0.123C0.307,-0.131 0.331,-0.133 0.355,-0.13C0.398,-0.125 0.435,-0.102 0.457,-0.072C0.476,-0.047 0.485,-0.016 0.481,0.016C0.479,0.031 0.474,0.045 0.467,0.057Z" style="fill:url(#_Linear15);fill-rule:nonzero;"/>
                </g>
                <g transform="matrix(1.11141,0,0,1.13101,-84,5.8088)">
                    <g opacity="0.6">
                        <g transform="matrix(1,0,0,1,274.84,195.106)">
                            <path d="M0,52.351C0,66.431 -11.408,77.839 -25.489,77.839C-39.559,77.839 -50.967,66.431 -50.967,52.351C-50.967,46.194 -48.793,40.558 -45.154,36.149C-46.87,32.655 -47.847,28.641 -47.847,24.387C-47.847,16.837 -44.79,10.067 -39.964,5.543C-43.219,2.029 -45.195,-2.661 -45.195,-7.83C-45.195,-15.567 -40.724,-22.274 -34.224,-25.488C-34.557,-18.489 -34.525,-8.849 -33.007,1.082C-32.498,4.42 -31.822,7.8 -30.927,11.118C-29.43,16.692 -27.329,22.089 -24.417,26.883C-20.757,32.935 -15.817,38.031 -9.172,41.296C-6.801,42.472 -4.211,43.408 -1.383,44.073C-0.478,46.673 0,49.449 0,52.351" style="fill:rgb(0,69,2);fill-rule:nonzero;"/>
                        </g>
                    </g>
                </g>
                <g transform="matrix(1.11141,0,0,1.13101,187.381,204.604)">
                    <path d="M0,149.342C0,149.342 2.343,-0.606 4.75,-0.515C7.156,-0.423 7.793,149.948 7.793,149.948L0,149.342Z" style="fill:rgb(77,38,71);fill-rule:nonzero;"/>
                </g>
                <g transform="matrix(1.11141,0,0,1.13101,181.352,254.505)">
                    <path d="M0,-12.745C0,-12.745 1.446,-5.842 9.765,-5.887L9.797,0C9.797,0 -0.599,-5.318 0,-12.745" style="fill:rgb(77,38,71);fill-rule:nonzero;"/>
                </g>
                <g transform="matrix(1.11141,0,0,1.13101,181.558,292.444)">
                    <path d="M0,-12.745C0,-12.745 1.446,-5.842 9.765,-5.888L9.797,0C9.797,0 -0.599,-5.319 0,-12.745" style="fill:rgb(77,38,71);fill-rule:nonzero;"/>
                </g>
                <g transform="matrix(1.11141,0,0,1.13101,204.153,270.339)">
                    <path d="M0,-12.853C0,-12.853 -1.37,-5.934 -9.689,-5.888L-9.656,0C-9.656,0 0.681,-5.433 0,-12.853" style="fill:rgb(77,38,71);fill-rule:nonzero;"/>
                </g>
                <g transform="matrix(1.11141,0,0,1.13101,204.131,235.585)">
                    <path d="M0,-12.852C0,-12.852 -1.37,-5.933 -9.689,-5.888L-9.656,0C-9.656,0 0.681,-5.433 0,-12.852" style="fill:rgb(77,38,71);fill-rule:nonzero;"/>
                </g>
                <g transform="matrix(53.1989,-60.2369,-59.1932,-54.137,178.522,381.432)">
                    <path d="M0.427,0.115C0.325,0.225 0.204,0.122 0.204,0.122C0.204,0.122 0.204,0.19 0.135,0.195C0.066,0.201 0.015,0.063 0.015,0.063L0.3,-0.255C0.3,-0.255 0.547,-0.185 0.392,-0.058C0.392,-0.058 0.527,0.003 0.43,0.112C0.429,0.113 0.428,0.114 0.427,0.115Z" style="fill:url(#_Linear16);fill-rule:nonzero;"/>
                </g>
                <g transform="matrix(1.11141,0,0,1.13101,-84,5.8088)">
                    <g opacity="0.6">
                        <g transform="matrix(1,0,0,1,239.814,327.52)">
                            <path d="M0,-14.575C-0.331,-13.134 -0.361,-12.104 -0.361,-12.104C-0.361,-12.104 -3.954,-15.385 -7.546,-11.948C-11.139,-8.512 -6.245,0.81 -6.245,0.81L24.364,0.81C24.364,0.81 25.939,-2.414 26.474,-5.823C12.479,-4.429 4.268,-10.009 0,-14.575" style="fill:rgb(0,69,2);fill-rule:nonzero;"/>
                        </g>
                    </g>
                </g>
            </g>
        </g>
        <g id="middle_hills">
            <g transform="matrix(-23.8391,-349.335,-343.282,24.2594,337.463,544.486)">
                <path d="M0.409,0.96L0.172,0.976L0.037,-0.963L0.221,-0.976C0.381,-0.699 0.289,-0.459 0.252,-0.269C0.211,-0.061 0.382,0.084 0.474,0.457C0.487,0.51 0.494,0.558 0.497,0.603C0.51,0.788 0.449,0.905 0.409,0.96Z" style="fill:url(#_Linear17);fill-rule:nonzero;"/>
            </g>
            <g transform="matrix(1.24774,0,0,1.10672,-176.4,5.69522)">
                <g opacity="0.6">
                    <g transform="matrix(1,0,0,1,675.946,377.009)">
                        <path d="M0,37.125C-113.186,42.333 -153.039,20.199 -173.924,2.465C-189.885,7.04 -204.953,11.929 -219.163,15.735C-254.081,25.088 -284.524,14.105 -324.578,-1.018C-324.578,-1.018 -401.403,-15.362 -444.415,-6.601C-528.487,10.525 -553.524,-18.082 -560.365,-30.1C-579.774,-22.882 -593.396,-13.566 -601.892,-6.426L-601.892,67.225L0,67.225L0,37.125Z" style="fill:rgb(0,69,2);fill-rule:nonzero;"/>
                    </g>
                </g>
            </g>
            <g id="middle_dots">
                <g transform="matrix(-1.11141,0,0,1.13101,114.531,403.795)">
                    <path d="M0,-1.419C1.063,-1.419 1.926,-1.101 1.926,-0.709C1.926,-0.317 1.063,0 0,0C-1.063,0 -1.926,-0.317 -1.926,-0.709C-1.926,-1.101 -1.063,-1.419 0,-1.419" style="fill:white;fill-rule:nonzero;"/>
                </g>
                <g transform="matrix(-1.11141,0,0,1.13101,107.171,415.98)">
                    <path d="M0,-1.419C1.063,-1.419 1.926,-1.102 1.926,-0.71C1.926,-0.317 1.063,0 0,0C-1.063,0 -1.926,-0.317 -1.926,-0.71C-1.926,-1.102 -1.063,-1.419 0,-1.419" style="fill:white;fill-rule:nonzero;"/>
                </g>
                <g transform="matrix(-1.11141,0,0,1.13101,171.114,413.619)">
                    <path d="M0,-1.419C1.064,-1.419 1.926,-1.102 1.926,-0.71C1.926,-0.317 1.064,0 0,0C-1.063,0 -1.926,-0.317 -1.926,-0.71C-1.926,-1.102 -1.063,-1.419 0,-1.419" style="fill:white;fill-rule:nonzero;"/>
                </g>
                <g transform="matrix(-1.11141,0,0,1.13101,190.993,404.725)">
                    <path d="M0,-1.419C1.063,-1.419 1.926,-1.101 1.926,-0.709C1.926,-0.317 1.063,0 0,0C-1.063,0 -1.926,-0.317 -1.926,-0.709C-1.926,-1.101 -1.063,-1.419 0,-1.419" style="fill:white;fill-rule:nonzero;"/>
                </g>
                <g transform="matrix(-1.11141,0,0,1.13101,502.793,444.923)">
                    <path d="M0,-1.419C1.063,-1.419 1.926,-1.102 1.926,-0.71C1.926,-0.318 1.063,0 0,0C-1.063,0 -1.926,-0.318 -1.926,-0.71C-1.926,-1.102 -1.063,-1.419 0,-1.419" style="fill:white;fill-rule:nonzero;"/>
                </g>
                <g transform="matrix(-1.11141,0,0,1.13101,515.701,473.553)">
                    <path d="M0,-1.419C1.063,-1.419 1.926,-1.101 1.926,-0.709C1.926,-0.317 1.063,0 0,0C-1.063,0 -1.926,-0.317 -1.926,-0.709C-1.926,-1.101 -1.063,-1.419 0,-1.419" style="fill:white;fill-rule:nonzero;"/>
                </g>
                <g transform="matrix(-1.11141,0,0,1.13101,495.434,457.107)">
                    <path d="M0,-1.419C1.063,-1.419 1.926,-1.102 1.926,-0.71C1.926,-0.317 1.063,0 0,0C-1.063,0 -1.926,-0.317 -1.926,-0.71C-1.926,-1.102 -1.063,-1.419 0,-1.419" style="fill:white;fill-rule:nonzero;"/>
                </g>
                <g transform="matrix(-1.11141,0,0,1.13101,227.178,430.3)">
                    <path d="M0,-1.419C1.064,-1.419 1.926,-1.102 1.926,-0.71C1.926,-0.317 1.064,0 0,0C-1.063,0 -1.926,-0.317 -1.926,-0.71C-1.926,-1.102 -1.063,-1.419 0,-1.419" style="fill:white;fill-rule:nonzero;"/>
                </g>
                <g transform="matrix(-1.11141,0,0,1.13101,251.737,419.326)">
                    <path d="M0,-1.419C1.063,-1.419 1.926,-1.102 1.926,-0.709C1.926,-0.317 1.063,0 0,0C-1.064,0 -1.926,-0.317 -1.926,-0.709C-1.926,-1.102 -1.064,-1.419 0,-1.419" style="fill:white;fill-rule:nonzero;"/>
                </g>
                <g transform="matrix(-1.11141,0,0,1.13101,522.907,453.437)">
                    <path d="M0.001,-1.419C1.064,-1.419 1.927,-1.102 1.927,-0.709C1.927,-0.317 1.064,0 0.001,0C-1.063,0 -1.926,-0.317 -1.926,-0.709C-1.926,-1.102 -1.063,-1.419 0.001,-1.419" style="fill:white;fill-rule:nonzero;"/>
                </g>
                <g transform="matrix(-1.11141,0,0,1.13101,469.333,452.162)">
                    <path d="M0,-1.419C1.063,-1.419 1.926,-1.101 1.926,-0.709C1.926,-0.317 1.063,0 0,0C-1.063,0 -1.926,-0.317 -1.926,-0.709C-1.926,-1.101 -1.063,-1.419 0,-1.419" style="fill:white;fill-rule:nonzero;"/>
                </g>
                <g transform="matrix(-1.11141,0,0,1.13101,518.174,435.632)">
                    <path d="M0.001,-1.42C1.064,-1.42 1.927,-1.102 1.927,-0.71C1.927,-0.318 1.064,0 0.001,0C-1.063,0 -1.926,-0.318 -1.926,-0.71C-1.926,-1.102 -1.063,-1.42 0.001,-1.42" style="fill:white;fill-rule:nonzero;"/>
                </g>
                <g transform="matrix(-1.11141,0,0,1.13101,477.37,473.206)">
                    <path d="M0,-1.419C1.063,-1.419 1.926,-1.101 1.926,-0.709C1.926,-0.317 1.063,0 0,0C-1.063,0 -1.926,-0.317 -1.926,-0.709C-1.926,-1.101 -1.063,-1.419 0,-1.419" style="fill:white;fill-rule:nonzero;"/>
                </g>
                <g transform="matrix(-1.11141,0,0,1.13101,273.462,439.999)">
                    <path d="M0,-1.419C1.063,-1.419 1.926,-1.101 1.926,-0.709C1.926,-0.317 1.063,0 0,0C-1.063,0 -1.926,-0.317 -1.926,-0.709C-1.926,-1.101 -1.063,-1.419 0,-1.419" style="fill:white;fill-rule:nonzero;"/>
                </g>
            </g>
            <g transform="matrix(1.11141,0,0,1.13101,-84,5.8088)">
                <g opacity="0.6">
                    <g transform="matrix(1,0,0,1,462.017,398.362)">
                        <path d="M0,24.177C-44.342,28.764 -54.536,28.254 -128.949,3.28C-203.363,-21.694 -257.39,2.77 -257.39,2.77L-237.378,45.871L51.581,45.871C42.113,34.446 25.537,21.535 0,24.177" style="fill:rgb(0,69,2);fill-rule:nonzero;"/>
                    </g>
                </g>
            </g>
            <g transform="matrix(1.11141,0,0,1.30256,-87.5221,-62.3431)">
                <g opacity="0.6">
                    <g transform="matrix(1,0,0,1,500.162,408.035)">
                        <path d="M0,31.161C-22.047,33.505 -36.925,26.669 -50.13,20.249C-63.953,21.74 -80.132,24.224 -99.77,24.501C-119.311,24.776 -134.857,20.295 -149.597,14.149C-170.089,16 -194.045,18.184 -221.48,20.038C-275.902,23.715 -293.412,5.67 -298.987,-5.037C-320.132,7.229 -334.248,25.399 -341.332,36.198L4.7,36.198C3.151,34.335 1.586,32.664 0,31.161" style="fill:rgb(0,69,2);fill-rule:nonzero;"/>
                    </g>
                </g>
            </g>
            <g transform="matrix(27.7504,-131.785,-129.502,-28.2397,281.178,525.527)">
                <path d="M-0.173,1.42L0.435,-1.42C0.631,-1.171 0.446,-0.972 0.348,-0.542C0.242,-0.079 0.521,0.179 0.436,0.735C0.434,0.751 0.431,0.767 0.428,0.782C0.343,1.177 -0.01,1.356 -0.173,1.42Z" style="fill:url(#_Linear18);fill-rule:nonzero;"/>
            </g>
        </g>
        <g id="bottom_left_plants" transform="matrix(1,0,0,1,14.2819,-4.20647)">
            <g id="bottom_left_small_plant" transform="matrix(1,0,0,1,-3.52207,0.979689)">
                <g transform="matrix(-0.480151,1.02002,1.00235,0.488618,149.164,485.547)">
                    <path d="M-63.425,-39.945C-63.425,-39.945 -9.561,-16.344 25.156,-39.945" style="fill:none;fill-rule:nonzero;stroke:rgb(6,92,95);stroke-width:0.92px;"/>
                </g>
                <g transform="matrix(1.03585,0.409907,0.402805,-1.05412,122.307,456.567)">
                    <path d="M3.551,-1.093C3.551,-1.093 16.491,9.567 12.268,12.704C8.045,15.843 3.551,3.512 3.551,3.512C3.551,3.512 0.119,16.711 -4.058,13.931C-8.234,11.15 3.551,-1.093 3.551,-1.093" style="fill:rgb(6,92,95);fill-rule:nonzero;"/>
                </g>
                <g transform="matrix(1.11106,0.0284231,0.0279306,-1.13066,133.528,437.803)">
                    <path d="M0.218,-0.076C0.218,-0.076 14.235,2.795 10.997,9.244C9.391,12.442 0.218,2.63 0.218,2.63C0.218,2.63 -1.842,17.147 -4.47,16.04C-7.099,14.933 -7.703,2.569 0.218,-0.076" style="fill:rgb(6,92,95);fill-rule:nonzero;"/>
                </g>
                <g transform="matrix(1.09665,0.183727,0.180544,-1.11599,135.963,420.966)">
                    <path d="M1.128,0.074C1.128,0.074 9.322,6.289 7.087,9.083C4.852,11.879 1.128,2.481 1.128,2.481C1.128,2.481 -1.745,13.651 -5.671,12.136C-9.596,10.621 -1.412,0.515 1.128,0.074" style="fill:rgb(6,92,95);fill-rule:nonzero;"/>
                </g>
                <g transform="matrix(1.11141,0,0,1.13101,139.294,386.85)">
                    <path d="M0,17.062C0,17.062 5.954,3.416 0.108,1.708C-5.738,0 0,17.062 0,17.062" style="fill:rgb(6,92,95);fill-rule:nonzero;"/>
                </g>
            </g>
            <g id="bottom_left_big_plant2">
                <g transform="matrix(96.1978,11.8878,11.6819,-97.8941,43.5296,461.209)">
                    <path d="M0.248,-0.347L0.624,-0.347C0.815,0.043 0.811,0.376 0.62,0.356C0.619,0.356 0.619,0.356 0.618,0.356C0.427,0.333 0.248,-0.347 0.248,-0.347Z" style="fill:url(#_Linear19);fill-rule:nonzero;"/>
                </g>
                <g transform="matrix(-0.41826,1.04805,1.02971,0.425187,116.095,497.181)">
                    <path d="M-40.693,-27.76C-40.693,-27.76 -5.642,-23.97 18.938,-27.76" style="fill:none;fill-rule:nonzero;stroke:rgb(135,175,40);stroke-width:0.92px;"/>
                </g>
                <g transform="matrix(1.11141,0,0,1.13101,96.5826,459.003)">
                    <path d="M0,-12.915L2.616,0L14.223,-5.231" style="fill:none;fill-rule:nonzero;stroke:rgb(135,175,40);stroke-width:0.93px;"/>
                </g>
                <g transform="matrix(1.11141,0,0,1.13101,89.0041,473.187)">
                    <path d="M0,-14.387L4.414,0L17.493,-4.251" style="fill:none;fill-rule:nonzero;stroke:rgb(135,175,40);stroke-width:0.93px;"/>
                </g>
                <g transform="matrix(1.11141,0,0,1.13101,83.1892,486.683)">
                    <path d="M0,-13.078L4.741,0L16.512,-2.778" style="fill:none;fill-rule:nonzero;stroke:rgb(135,175,40);stroke-width:0.93px;"/>
                </g>
                <g transform="matrix(1.11141,0,0,1.13101,-82.3047,8.53068)">
                    <g opacity="0.6">
                        <g transform="matrix(-0.997694,0.0678782,0.0678782,0.997694,146.516,437.26)">
                            <path d="M-17.034,-54.275C-1.723,-40.636 15.133,-5.44 15.133,-5.44L-17.034,0.706C-21.357,-5.04 -25.039,-10.721 -28.061,-16.168C-15.631,-22.449 -15.965,-43.47 -17.034,-54.275" style="fill:rgb(0,69,2);fill-rule:nonzero;"/>
                        </g>
                    </g>
                </g>
            </g>
            <g id="bottom_left_big_plant1">
                <g transform="matrix(95.2444,67.3373,66.1706,-96.9238,18.7988,412.011)">
                    <path d="M0.326,-0.221C0.326,-0.221 0.653,-0.49 0.642,-0.127C0.631,0.236 0.46,0.533 0.326,0.443C0.326,0.443 0.325,0.443 0.325,0.443C0.193,0.351 0.326,-0.221 0.326,-0.221Z" style="fill:url(#_Linear20);fill-rule:nonzero;"/>
                </g>
                <g transform="matrix(-0.534483,0.993487,0.974707,0.540084,84.9274,469.415)">
                    <path d="M-46.29,-30.86C-46.29,-30.86 -3.749,-25.34 20.573,-30.86" style="fill:none;fill-rule:nonzero;stroke:rgb(135,175,40);stroke-width:0.92px;"/>
                </g>
                <g transform="matrix(1.11141,0,0,1.13101,71.2426,420.83)">
                    <path d="M0,-12.916L2.616,0L14.223,-5.231" style="fill:none;fill-rule:nonzero;stroke:rgb(135,175,40);stroke-width:0.93px;"/>
                </g>
                <g transform="matrix(1.11141,0,0,1.13101,63.7473,434.026)">
                    <path d="M0,-14.387L4.414,0L17.493,-4.25" style="fill:none;fill-rule:nonzero;stroke:rgb(135,175,40);stroke-width:0.93px;"/>
                </g>
                <g transform="matrix(1.11141,0,0,1.13101,56.2836,446.768)">
                    <path d="M0,-13.079L4.741,0L16.512,-2.779" style="fill:none;fill-rule:nonzero;stroke:rgb(135,175,40);stroke-width:0.93px;"/>
                </g>
                <g transform="matrix(1.10328,0,0,1.12273,-82.7145,8.23998)">
                    <g opacity="0.6">
                        <g transform="matrix(-0.708724,-0.705486,-0.705486,0.708724,85.6499,410.882)">
                            <path d="M-5.876,-94.234C-10.903,-85.733 -19.802,-64.679 2.947,-48.678C-1.252,-35.539 -5.876,-24.735 -5.876,-24.735C-5.876,-24.735 -44.392,-3.034 -36.636,-40.132C-31.047,-66.867 -17.526,-88.553 -5.876,-94.234" style="fill:rgb(0,69,2);fill-rule:nonzero;"/>
                        </g>
                    </g>
                </g>
            </g>
            <g id="bottom_left_shrub" transform="matrix(1,0,0,1,-2.6132,-1.60604)">
                <g transform="matrix(102.773,-185.099,-181.892,-104.585,27.7928,510.367)">
                    <path d="M0.165,0.31L-0.074,0.175L0.201,-0.31C0.298,-0.273 0.193,-0.13 0.193,-0.13C0.193,-0.13 0.337,-0.153 0.324,-0.046C0.312,0.06 0.214,0.064 0.214,0.064C0.214,0.064 0.303,0.083 0.295,0.175C0.293,0.19 0.288,0.204 0.281,0.217C0.254,0.265 0.195,0.297 0.165,0.31Z" style="fill:url(#_Linear21);fill-rule:nonzero;"/>
                </g>
                <g transform="matrix(1.11141,0,0,1.13101,-93.9731,3.23179)">
                    <g opacity="0.6">
                        <g transform="matrix(1,0,0,1,148.761,404.717)">
                            <path d="M0,24.124C0,24.124 0.877,23.007 2.01,21.201C-44.183,20.821 -63.109,-3.438 -69.64,-15.393C-71.646,-14.173 -73.375,-12.985 -74.707,-12.012L-74.707,39.517L30.116,39.517C32.99,20.229 0,24.124 0,24.124" style="fill:rgb(0,69,2);fill-rule:nonzero;"/>
                        </g>
                    </g>
                </g>
            </g>
        </g>
        <g id="bottom_right_plants">
            <g id="bottom_right_big_plant2">
                <g transform="matrix(92.9221,-65.695,64.5567,94.5606,562.683,492.318)">
                    <path d="M0.682,-0.333C0.522,-0.441 0.334,-0.055 0.321,0.38L0.682,0.464C0.682,0.464 0.842,-0.223 0.683,-0.333C0.683,-0.333 0.682,-0.333 0.682,-0.333Z" style="fill:url(#_Linear22);fill-rule:nonzero;"/>
                </g>
                <g transform="matrix(0.427466,1.04401,1.02592,-0.435004,644.889,431.656)">
                    <path d="M-20.574,-30.861C-20.574,-30.861 21.967,-36.381 46.291,-30.861" style="fill:none;fill-rule:nonzero;stroke:rgb(135,175,40);stroke-width:0.93px;"/>
                </g>
                <g transform="matrix(1.11141,0,0,1.13101,611.146,438.208)">
                    <path d="M0,-12.915L-2.615,0L-14.223,-5.231" style="fill:none;fill-rule:nonzero;stroke:rgb(135,175,40);stroke-width:0.93px;"/>
                </g>
                <g transform="matrix(1.11141,0,0,1.13101,619.689,455.658)">
                    <path d="M0,-14.387L-4.414,0L-17.493,-4.251" style="fill:none;fill-rule:nonzero;stroke:rgb(135,175,40);stroke-width:0.93px;"/>
                </g>
                <g transform="matrix(1.11141,0,0,1.13101,625.503,469.154)">
                    <path d="M0,-13.078L-4.741,0L-16.512,-2.779" style="fill:none;fill-rule:nonzero;stroke:rgb(135,175,40);stroke-width:0.93px;"/>
                </g>
                <g transform="matrix(1.11141,0,0,1.13101,-21.0429,25.1056)">
                    <g opacity="0.6">
                        <g transform="matrix(-0.456904,0.889516,0.889516,0.456904,596.613,364.45)">
                            <path d="M37.84,-27.264C47.806,-18.008 57.99,-5.316 66.291,9.208L37.84,33.989C37.84,33.989 -3.202,-13.039 -1.444,-33.54C8.257,-24.762 27.008,-11.415 37.84,-27.264" style="fill:rgb(0,69,2);fill-rule:nonzero;"/>
                        </g>
                    </g>
                </g>
            </g>
            <g id="bottom_right_big_plant1">
                <g transform="matrix(1.11141,0,0,1.13101,-30.6593,31.9482)">
                    <g transform="matrix(100.351,-69.7165,69.7165,100.351,561.264,389.118)">
                        <path d="M0.599,-0.434C0.465,-0.523 0.293,-0.226 0.283,0.137C0.272,0.5 0.599,0.231 0.599,0.231C0.599,0.231 0.732,-0.341 0.6,-0.433C0.599,-0.433 0.599,-0.434 0.599,-0.434Z" style="fill:url(#_Linear23);fill-rule:nonzero;"/>
                    </g>
                    <g transform="matrix(1,0,0,1,600.247,334.484)">
                        <path d="M0,-12.915L-2.616,0L-14.224,-5.231" style="fill:none;fill-rule:nonzero;stroke:rgb(135,175,40);stroke-width:0.93px;"/>
                    </g>
                    <g transform="matrix(1,0,0,1,606.949,347.891)">
                        <path d="M0,-14.387L-4.414,0L-17.492,-4.251" style="fill:none;fill-rule:nonzero;stroke:rgb(135,175,40);stroke-width:0.93px;"/>
                    </g>
                </g>
                <g transform="matrix(0.427466,1.04401,1.02592,-0.435004,669.113,401.416)">
                    <path d="M-20.574,-30.861C-20.574,-30.861 21.968,-36.38 46.291,-30.861" style="fill:none;fill-rule:nonzero;stroke:rgb(135,175,40);stroke-width:0.93px;"/>
                </g>
                <g transform="matrix(1.11141,0,0,1.13101,649.728,438.914)">
                    <path d="M0,-13.078L-4.741,0L-16.513,-2.779" style="fill:none;fill-rule:nonzero;stroke:rgb(135,175,40);stroke-width:0.93px;"/>
                </g>
                <g transform="matrix(1.11141,0,0,1.13101,-30.6596,33.4095)">
                    <g opacity="0.6">
                        <g transform="matrix(0.188237,-0.982124,-0.982124,-0.188237,620.116,345.063)">
                            <path d="M-23.426,-22.097C-23.426,-22.097 10.38,-0.519 25.9,18.432C10.542,14.969 -20.367,10.421 -23.426,28.977C-30.059,24.499 -36.709,19.176 -43.033,13.089C-75.005,-17.692 -23.426,-22.097 -23.426,-22.097" style="fill:rgb(0,69,2);fill-rule:nonzero;"/>
                        </g>
                    </g>
                </g>
            </g>
            <g id="bottom_right_small_plant">
                <g transform="matrix(1.11141,0,0,1.13101,-41.8666,28.8661)">
                    <g transform="matrix(0.111378,0.993778,0.993778,-0.111378,674.63,320.995)">
                        <path d="M-47.113,-35.342C-47.113,-35.342 6.751,-58.942 41.469,-35.342" style="fill:none;fill-rule:nonzero;stroke:rgb(6,92,95);stroke-width:0.93px;"/>
                    </g>
                    <g transform="matrix(0.985236,0.171201,0.171201,-0.985236,629.464,294.754)">
                        <path d="M1.143,-0.364C1.143,-0.364 -7.052,5.85 -4.818,8.645C-2.582,11.441 1.143,2.043 1.143,2.043C1.143,2.043 4.014,13.214 7.941,11.699C11.866,10.184 3.682,0.077 1.143,-0.364" style="fill:rgb(6,92,95);fill-rule:nonzero;"/>
                    </g>
                    <g transform="matrix(1,0,0,1,633.105,267.371)">
                        <path d="M0,14.845C0,14.845 -1.134,0 4.948,0.309C11.03,0.618 0,14.845 0,14.845" style="fill:rgb(6,92,95);fill-rule:nonzero;"/>
                    </g>
                </g>
                <g transform="matrix(1.11071,-0.04028,-0.039582,-1.13029,658.686,399.175)">
                    <path d="M-0.32,-0.029C-0.32,-0.029 -13.261,10.628 -9.038,13.768C-4.815,16.906 -0.32,4.575 -0.32,4.575C-0.32,4.575 3.111,17.775 7.287,14.994C11.465,12.214 -0.32,-0.029 -0.32,-0.029" style="fill:rgb(6,92,95);fill-rule:nonzero;"/>
                </g>
                <g transform="matrix(1.0585,0.344842,0.338866,-1.07716,654.118,377.329)">
                    <path d="M2.382,0.517C2.382,0.517 -11.635,3.391 -8.395,9.84C-6.789,13.038 2.382,3.223 2.382,3.223C2.382,3.223 4.447,17.738 7.074,16.632C9.701,15.525 10.304,3.162 2.382,0.517" style="fill:rgb(6,92,95);fill-rule:nonzero;"/>
                </g>
            </g>
            <g id="bottom_right_shrub">
                <g transform="matrix(-100.326,-208.34,-204.73,102.095,712.397,504.209)">
                    <path d="M0.414,-0.245C0.436,-0.144 0.33,-0.097 0.33,-0.097C0.425,0.108 0.212,0.17 0.212,0.17C0.278,0.281 0.17,0.34 0.15,0.35L-0.098,-0.155L0.3,-0.35C0.313,-0.348 0.373,-0.339 0.402,-0.279C0.407,-0.269 0.411,-0.258 0.414,-0.245Z" style="fill:url(#_Linear24);fill-rule:nonzero;"/>
                </g>
                <g transform="matrix(1.11141,0,0,1.13101,3.72383,5.8088)">
                    <g opacity="0.6">
                        <g transform="matrix(1,0,0,1,649.576,441.879)">
                            <path d="M0,-100.671C-1.696,-78.419 -11.627,-36.14 -61.667,-26.387C-61.59,-25.77 -61.53,-25.425 -61.53,-25.425C-87.906,-27.453 -88.989,-2.352 -88.961,2.354L26.37,2.354L26.37,-88.486C24.788,-91.015 16.346,-103.025 0,-100.671" style="fill:rgb(0,69,2);fill-rule:nonzero;"/>
                        </g>
                    </g>
                </g>
            </g>
        </g>
    </g>
    <defs>
        <linearGradient id="_Linear1" x1="0" y1="0" x2="1" y2="0.0135034" gradientUnits="userSpaceOnUse" gradientTransform="matrix(-0.171653,0.985157,0.985157,0.171653,0.536905,-0.451444)"><stop offset="0" style="stop-color:rgb(171,192,86);stop-opacity:1"/><stop offset="1" style="stop-color:rgb(213,223,95);stop-opacity:1"/></linearGradient>
        <linearGradient id="_Linear2" x1="0" y1="0" x2="1" y2="0.00276954" gradientUnits="userSpaceOnUse" gradientTransform="matrix(1,0,0,-1,0,0.0262166)"><stop offset="0" style="stop-color:rgb(1,141,132);stop-opacity:1"/><stop offset="1" style="stop-color:rgb(213,223,95);stop-opacity:1"/></linearGradient>
        <linearGradient id="_Linear3" x1="0" y1="0" x2="1" y2="0.0136187" gradientUnits="userSpaceOnUse" gradientTransform="matrix(-0.99644,0.0843071,0.0843071,0.99644,-0.306011,0.0129224)"><stop offset="0" style="stop-color:rgb(1,141,132);stop-opacity:1"/><stop offset="1" style="stop-color:rgb(213,223,95);stop-opacity:1"/></linearGradient>
        <linearGradient id="_Linear4" x1="0" y1="0" x2="1" y2="0.00727754" gradientUnits="userSpaceOnUse" gradientTransform="matrix(1,0,0,-1,0,-2.61997e-06)"><stop offset="0" style="stop-color:rgb(171,192,86);stop-opacity:1"/><stop offset="1" style="stop-color:rgb(213,223,95);stop-opacity:1"/></linearGradient>
        <linearGradient id="_Linear5" x1="0" y1="0" x2="1" y2="0.00442323" gradientUnits="userSpaceOnUse" gradientTransform="matrix(1,0,0,-1,0,0.00377229)"><stop offset="0" style="stop-color:rgb(106,165,101);stop-opacity:1"/><stop offset="0.14" style="stop-color:rgb(106,165,101);stop-opacity:1"/><stop offset="1" style="stop-color:rgb(213,223,95);stop-opacity:1"/></linearGradient>
        <linearGradient id="_Linear6" x1="0" y1="0" x2="1" y2="0.00442323" gradientUnits="userSpaceOnUse" gradientTransform="matrix(1,0,0,-1,0,-0.000141658)"><stop offset="0" style="stop-color:rgb(106,165,101);stop-opacity:1"/><stop offset="0.14" style="stop-color:rgb(106,165,101);stop-opacity:1"/><stop offset="1" style="stop-color:rgb(213,223,95);stop-opacity:1"/></linearGradient>
        <linearGradient id="_Linear7" x1="0" y1="0" x2="1" y2="0.00442323" gradientUnits="userSpaceOnUse" gradientTransform="matrix(1,-1.38778e-17,-1.38778e-17,-1,0,-0.0012241)"><stop offset="0" style="stop-color:rgb(106,165,101);stop-opacity:1"/><stop offset="0.14" style="stop-color:rgb(106,165,101);stop-opacity:1"/><stop offset="1" style="stop-color:rgb(213,223,95);stop-opacity:1"/></linearGradient>
        <linearGradient id="_Linear8" x1="0" y1="0" x2="1" y2="0.0108553" gradientUnits="userSpaceOnUse" gradientTransform="matrix(1,0,0,-1,0,-0.0189173)"><stop offset="0" style="stop-color:rgb(33,149,146);stop-opacity:1"/><stop offset="0.28" style="stop-color:rgb(33,149,146);stop-opacity:1"/><stop offset="1" style="stop-color:rgb(213,223,95);stop-opacity:1"/></linearGradient>
        <linearGradient id="_Linear9" x1="0" y1="0" x2="1" y2="0.00632593" gradientUnits="userSpaceOnUse" gradientTransform="matrix(1,0,0,-1,0,-0.00716729)"><stop offset="0" style="stop-color:rgb(33,149,146);stop-opacity:1"/><stop offset="0.28" style="stop-color:rgb(33,149,146);stop-opacity:1"/><stop offset="1" style="stop-color:rgb(213,223,95);stop-opacity:1"/></linearGradient>
        <linearGradient id="_Linear10" x1="0" y1="0" x2="1" y2="0.00632593" gradientUnits="userSpaceOnUse" gradientTransform="matrix(1,0,0,-1,0,0.00611914)"><stop offset="0" style="stop-color:rgb(33,149,146);stop-opacity:1"/><stop offset="0.28" style="stop-color:rgb(33,149,146);stop-opacity:1"/><stop offset="1" style="stop-color:rgb(213,223,95);stop-opacity:1"/></linearGradient>
        <linearGradient id="_Linear11" x1="0" y1="0" x2="1" y2="0.00632593" gradientUnits="userSpaceOnUse" gradientTransform="matrix(1,0,0,-1,0,0.00580415)"><stop offset="0" style="stop-color:rgb(33,149,146);stop-opacity:1"/><stop offset="0.28" style="stop-color:rgb(33,149,146);stop-opacity:1"/><stop offset="1" style="stop-color:rgb(213,223,95);stop-opacity:1"/></linearGradient>
        <linearGradient id="_Linear12" x1="0" y1="0" x2="1" y2="0.0174107" gradientUnits="userSpaceOnUse" gradientTransform="matrix(1,-5.55112e-17,-5.55112e-17,-1,0,-0.029884)"><stop offset="0" style="stop-color:rgb(33,149,146);stop-opacity:1"/><stop offset="0.28" style="stop-color:rgb(33,149,146);stop-opacity:1"/><stop offset="1" style="stop-color:rgb(213,223,95);stop-opacity:1"/></linearGradient>
        <linearGradient id="_Linear13" x1="0" y1="0" x2="1" y2="0.00442323" gradientUnits="userSpaceOnUse" gradientTransform="matrix(1,1.38778e-17,1.38778e-17,-1,0,0.00438965)"><stop offset="0" style="stop-color:rgb(106,165,101);stop-opacity:1"/><stop offset="0.14" style="stop-color:rgb(106,165,101);stop-opacity:1"/><stop offset="1" style="stop-color:rgb(213,223,95);stop-opacity:1"/></linearGradient>
        <linearGradient id="_Linear14" x1="0" y1="0" x2="1" y2="0.00442323" gradientUnits="userSpaceOnUse" gradientTransform="matrix(1,0,0,-1,0,-0.00160219)"><stop offset="0" style="stop-color:rgb(106,165,101);stop-opacity:1"/><stop offset="0.14" style="stop-color:rgb(106,165,101);stop-opacity:1"/><stop offset="1" style="stop-color:rgb(213,223,95);stop-opacity:1"/></linearGradient>
        <linearGradient id="_Linear15" x1="0" y1="0" x2="1" y2="0.00442323" gradientUnits="userSpaceOnUse" gradientTransform="matrix(1,-1.38778e-17,-1.38778e-17,-1,0,-0.00237543)"><stop offset="0" style="stop-color:rgb(106,165,101);stop-opacity:1"/><stop offset="0.14" style="stop-color:rgb(106,165,101);stop-opacity:1"/><stop offset="1" style="stop-color:rgb(213,223,95);stop-opacity:1"/></linearGradient>
        <linearGradient id="_Linear16" x1="0" y1="0" x2="1" y2="0.0174107" gradientUnits="userSpaceOnUse" gradientTransform="matrix(1,0,0,-1,0,-0.02989)"><stop offset="0" style="stop-color:rgb(33,149,146);stop-opacity:1"/><stop offset="0.28" style="stop-color:rgb(33,149,146);stop-opacity:1"/><stop offset="1" style="stop-color:rgb(213,223,95);stop-opacity:1"/></linearGradient>
        <linearGradient id="_Linear17" x1="0" y1="0" x2="1" y2="-0.00245833" gradientUnits="userSpaceOnUse" gradientTransform="matrix(1,0,0,-1,0,1.18599e-07)"><stop offset="0" style="stop-color:rgb(106,165,101);stop-opacity:1"/><stop offset="1" style="stop-color:rgb(228,238,101);stop-opacity:1"/></linearGradient>
        <linearGradient id="_Linear18" x1="0" y1="0" x2="1" y2="0.00727754" gradientUnits="userSpaceOnUse" gradientTransform="matrix(1,0,0,-1,0,-7.43043e-06)"><stop offset="0" style="stop-color:rgb(153,193,80);stop-opacity:1"/><stop offset="0.27" style="stop-color:rgb(153,193,80);stop-opacity:1"/><stop offset="1" style="stop-color:rgb(213,223,95);stop-opacity:1"/></linearGradient>
        <linearGradient id="_Linear19" x1="0" y1="0" x2="1" y2="0.0135034" gradientUnits="userSpaceOnUse" gradientTransform="matrix(0.308701,0.951159,0.951159,-0.308701,0.384154,-0.528558)"><stop offset="0" style="stop-color:rgb(171,192,86);stop-opacity:1"/><stop offset="1" style="stop-color:rgb(213,223,95);stop-opacity:1"/></linearGradient>
        <linearGradient id="_Linear20" x1="0" y1="0" x2="1" y2="0.0135034" gradientUnits="userSpaceOnUse" gradientTransform="matrix(-0.171665,0.985155,0.985155,0.171665,0.536905,-0.451438)"><stop offset="0" style="stop-color:rgb(171,192,86);stop-opacity:1"/><stop offset="1" style="stop-color:rgb(213,223,95);stop-opacity:1"/></linearGradient>
        <linearGradient id="_Linear21" x1="0" y1="0" x2="1" y2="0.0151071" gradientUnits="userSpaceOnUse" gradientTransform="matrix(1,0,0,-1,0,1.98757e-06)"><stop offset="0" style="stop-color:rgb(3,116,119);stop-opacity:1"/><stop offset="0.19" style="stop-color:rgb(3,116,119);stop-opacity:1"/><stop offset="1" style="stop-color:rgb(213,223,95);stop-opacity:1"/></linearGradient>
        <linearGradient id="_Linear22" x1="0" y1="0" x2="1" y2="0.0135034" gradientUnits="userSpaceOnUse" gradientTransform="matrix(0.171662,-0.985156,-0.985156,-0.171662,0.470961,0.560122)"><stop offset="0" style="stop-color:rgb(171,192,86);stop-opacity:1"/><stop offset="1" style="stop-color:rgb(213,223,95);stop-opacity:1"/></linearGradient>
        <linearGradient id="_Linear23" x1="0" y1="0" x2="1" y2="0.0135034" gradientUnits="userSpaceOnUse" gradientTransform="matrix(0.171652,-0.985158,-0.985158,-0.171652,0.387616,0.460994)"><stop offset="0" style="stop-color:rgb(171,192,86);stop-opacity:1"/><stop offset="1" style="stop-color:rgb(213,223,95);stop-opacity:1"/></linearGradient>
        <linearGradient id="_Linear24" x1="0" y1="0" x2="1" y2="-0.0139619" gradientUnits="userSpaceOnUse" gradientTransform="matrix(1,5.55112e-17,5.55112e-17,-1,0,-1.35255e-06)"><stop offset="0" style="stop-color:rgb(3,116,119);stop-opacity:1"/><stop offset="0.19" style="stop-color:rgb(3,116,119);stop-opacity:1"/><stop offset="1" style="stop-color:rgb(213,223,95);stop-opacity:1"/></linearGradient>
    </defs>
</svg>
